<svg xmlns="http://www.w3.org/2000/svg" width="142" height="42" viewBox="0 0 142 42">
    <g fill="none" fill-rule="evenodd">
        <rect width="142" height="42" fill="#000" rx="5.25"/>
        <path fill="#A6A6A6" fill-rule="nonzero" d="M136.74.84a4.414 4.414 0 0 1 4.419 4.41v31.5a4.414 4.414 0 0 1-4.418 4.41H5.259a4.414 4.414 0 0 1-4.418-4.41V5.25A4.414 4.414 0 0 1 5.26.84h131.482zm0-.84H5.26A5.255 5.255 0 0 0 0 5.25v31.5C0 39.65 2.355 42 5.26 42h131.48c2.905 0 5.26-2.35 5.26-5.25V5.25c0-2.9-2.355-5.25-5.26-5.25z"/>
        <g fill="#FFFFFE">
            <path d="M35.356 14.99c-1.555-2.288-3.966-2.6-4.814-2.624-2.024-.215-3.988 1.222-5.02 1.222-1.052 0-2.641-1.201-4.352-1.166-2.202.034-4.264 1.32-5.394 3.318-2.333 4.073-.593 10.06 1.642 13.351 1.118 1.613 2.424 3.413 4.133 3.35 1.672-.07 2.297-1.077 4.317-1.077 2 0 2.587 1.077 4.33 1.036 1.796-.03 2.926-1.62 4.005-3.246 1.292-1.85 1.81-3.67 1.831-3.763-.042-.013-3.486-1.34-3.52-5.35-.03-3.346 2.716-4.974 2.842-5.051zM29.22 10.2c.898-1.135 1.514-2.678 1.343-4.245-1.302.058-2.93.907-3.867 2.018-.83.978-1.571 2.581-1.38 4.089 1.463.11 2.965-.745 3.904-1.862M52.718 26.448l-1.158-3.607c-.123-.37-.352-1.238-.692-2.604h-.04c-.135.589-.352 1.456-.65 2.604l-1.138 3.607h3.678zm4.004 5.761h-2.338l-1.28-4.058h-4.45l-1.22 4.058h-2.276l4.41-13.817h2.724l4.43 13.817zM65.827 27.186c0-.97-.216-1.769-.65-2.398-.475-.655-1.111-.984-1.91-.984-.542 0-1.034.182-1.474.544-.44.362-.729.836-.864 1.425a2.914 2.914 0 0 0-.102.675v1.661c0 .725.22 1.336.661 1.835.44.5 1.013.748 1.717.748.827 0 1.471-.322 1.932-.963.46-.643.69-1.49.69-2.543zm2.236-.08c0 1.694-.454 3.033-1.362 4.016-.813.875-1.822 1.313-3.028 1.313-1.3 0-2.235-.472-2.804-1.416h-.042v5.249h-2.194V25.526c0-1.065-.028-2.159-.082-3.28h1.93l.123 1.58h.041c.731-1.19 1.843-1.784 3.332-1.784 1.167 0 2.139.464 2.918 1.393.779.93 1.168 2.153 1.168 3.67zM77.189 27.186c0-.97-.217-1.769-.65-2.398-.475-.655-1.112-.984-1.911-.984-.543 0-1.034.182-1.474.544-.44.362-.727.836-.863 1.425a2.97 2.97 0 0 0-.102.675v1.661c0 .725.22 1.336.659 1.835.44.5 1.014.748 1.719.748.827 0 1.47-.322 1.93-.963.461-.643.692-1.49.692-2.543zm2.236-.08c0 1.694-.454 3.033-1.363 4.016-.812.875-1.822 1.313-3.028 1.313-1.3 0-2.236-.472-2.804-1.416h-.041v5.249h-2.195V25.526c0-1.065-.027-2.159-.081-3.28h1.931l.122 1.58h.04c.732-1.19 1.841-1.784 3.333-1.784 1.164 0 2.138.464 2.917 1.393.779.93 1.169 2.153 1.169 3.67zM92.127 28.336c0 1.174-.404 2.13-1.216 2.868-.893.808-2.135 1.21-3.732 1.21-1.473 0-2.656-.287-3.55-.86l.508-1.846c.964.588 2.021.882 3.173.882.826 0 1.47-.188 1.932-.565.461-.376.69-.88.69-1.51 0-.56-.189-1.033-.57-1.416-.377-.383-1.008-.74-1.888-1.068-2.399-.903-3.598-2.224-3.598-3.963 0-1.135.42-2.067 1.26-2.792.839-.726 1.957-1.088 3.355-1.088 1.246 0 2.282.218 3.107.655l-.548 1.804c-.772-.423-1.645-.635-2.622-.635-.772 0-1.375.19-1.808.574a1.647 1.647 0 0 0-.549 1.251c0 .546.21.998.63 1.352.366.329 1.03.684 1.992 1.067 1.179.479 2.045 1.038 2.602 1.68.556.643.832 1.443.832 2.4M99.384 23.907h-2.42v4.838c0 1.23.427 1.845 1.281 1.845.392 0 .719-.035.976-.102l.06 1.68c-.433.164-1 .246-1.707.246-.867 0-1.544-.267-2.033-.799-.486-.533-.732-1.428-.732-2.686v-5.022h-1.441v-1.66h1.441v-1.825l2.156-.656v2.48h2.419v1.661M108.021 27.217c0-.918-.195-1.706-.59-2.364-.46-.795-1.117-1.192-1.97-1.192-.882 0-1.552.397-2.012 1.192-.394.658-.589 1.459-.589 2.406 0 .919.195 1.707.589 2.364.474.794 1.138 1.192 1.993 1.192.838 0 1.495-.404 1.97-1.213.406-.67.61-1.467.61-2.385zm2.277-.071c0 1.531-.433 2.788-1.3 3.772-.909 1.01-2.115 1.517-3.62 1.517-1.448 0-2.602-.485-3.463-1.456-.86-.97-1.29-2.194-1.29-3.67 0-1.543.442-2.808 1.33-3.791.886-.984 2.083-1.476 3.587-1.476 1.45 0 2.615.484 3.496 1.455.84.943 1.26 2.159 1.26 3.649zM117.432 24.193a3.773 3.773 0 0 0-.692-.06c-.772 0-1.369.293-1.789.881-.366.52-.548 1.175-.548 1.968v5.227h-2.194l.02-6.825c0-1.15-.028-2.195-.083-3.138h1.913l.08 1.906h.06c.231-.655.598-1.182 1.098-1.577a2.636 2.636 0 0 1 1.587-.533c.202 0 .386.014.548.04v2.11M125.155 26.182c.014-.656-.129-1.222-.426-1.702-.38-.614-.964-.922-1.75-.922-.717 0-1.3.3-1.746.903-.367.478-.584 1.053-.65 1.721h4.572zm2.093.574c0 .397-.026.731-.08 1.004h-6.585c.026.985.344 1.737.954 2.256.555.465 1.274.697 2.154.697.975 0 1.864-.158 2.664-.472l.344 1.537c-.935.41-2.038.616-3.312.616-1.531 0-2.734-.455-3.609-1.364-.872-.909-1.31-2.129-1.31-3.659 0-1.503.405-2.755 1.22-3.751.853-1.067 2.005-1.6 3.454-1.6 1.424 0 2.502.533 3.234 1.6.58.847.872 1.894.872 3.136zM50.855 9.922c0-.792-.208-1.4-.625-1.823-.416-.423-1.023-.635-1.822-.635-.34 0-.63.024-.87.071v5.076c.134.02.377.03.73.03.825 0 1.463-.231 1.912-.694.45-.463.675-1.138.675-2.025zm1.137-.03c0 1.222-.362 2.142-1.088 2.76-.673.57-1.627.855-2.866.855-.612 0-1.138-.027-1.578-.08V6.75c.574-.093 1.191-.14 1.858-.14 1.178 0 2.067.258 2.666.776.672.583 1.008 1.419 1.008 2.507zM56.904 10.995c0-.451-.096-.838-.29-1.161-.225-.392-.549-.587-.967-.587-.434 0-.763.195-.99.587-.192.323-.289.716-.289 1.18 0 .452.097.84.29 1.163.233.39.558.585.978.585.413 0 .735-.199.969-.595.2-.33.3-.72.3-1.172zm1.12-.036c0 .753-.214 1.37-.64 1.854-.447.497-1.039.745-1.778.745-.712 0-1.28-.238-1.702-.715-.422-.477-.634-1.078-.634-1.803 0-.759.217-1.38.653-1.863.437-.484 1.024-.725 1.763-.725.713 0 1.284.239 1.718.715.411.463.62 1.061.62 1.792zM66.11 8.553l-1.518 4.894h-.987l-.63-2.125c-.16-.531-.29-1.057-.39-1.582h-.019a11.62 11.62 0 0 1-.39 1.582l-.67 2.125h-.998l-1.427-4.894h1.108l.549 2.325c.133.552.243 1.075.33 1.572h.019c.08-.409.213-.93.4-1.561l.689-2.336h.878l.66 2.286c.16.557.29 1.094.389 1.611h.03c.073-.503.183-1.04.33-1.611l.59-2.286h1.057M71.703 13.447h-1.079v-2.803c0-.864-.325-1.296-.978-1.296a.97.97 0 0 0-.779.357c-.2.238-.3.517-.3.839v2.903H67.49V9.952c0-.43-.014-.896-.04-1.4h.949l.05.766h.03c.126-.238.313-.435.559-.591.292-.184.62-.275.978-.275.453 0 .83.147 1.13.443.372.363.558.902.558 1.62v2.932M73.6 13.447h1.078v-7.14H73.6zM79.91 10.995c0-.451-.097-.838-.29-1.161-.225-.392-.55-.587-.967-.587-.435 0-.764.195-.99.587-.192.323-.289.716-.289 1.18 0 .452.097.84.29 1.163.233.39.558.585.978.585.413 0 .734-.199.968-.595.2-.33.3-.72.3-1.172zm1.12-.036c0 .753-.214 1.37-.64 1.854-.447.497-1.04.745-1.778.745-.713 0-1.28-.238-1.702-.715-.422-.477-.633-1.078-.633-1.803 0-.759.217-1.38.652-1.863.437-.484 1.025-.725 1.762-.725.714 0 1.284.239 1.719.715.413.463.62 1.061.62 1.792zM85.13 11.765v-.755c-1.19-.02-1.784.308-1.784.986 0 .256.068.447.207.575a.75.75 0 0 0 .527.19c.236 0 .458-.074.658-.226a.923.923 0 0 0 .393-.77zm1.12 1.682h-.968l-.081-.564h-.03c-.332.45-.804.675-1.418.675-.458 0-.827-.147-1.107-.443a1.398 1.398 0 0 1-.38-.997c0-.598.247-1.054.744-1.37.496-.315 1.194-.47 2.093-.464v-.09c0-.645-.336-.967-1.008-.967-.479 0-.9.12-1.264.363l-.22-.716c.45-.28 1.007-.422 1.665-.422 1.268 0 1.905.675 1.905 2.024v1.803c0 .49.023.88.07 1.168zM91.263 11.383v-.816a1.241 1.241 0 0 0-.42-1.002 1.05 1.05 0 0 0-.722-.267c-.402 0-.717.161-.949.483-.23.323-.346.735-.346 1.238 0 .484.11.877.332 1.179.233.322.548.484.943.484.354 0 .637-.135.852-.403.208-.248.31-.547.31-.896zm1.118 2.064h-.958l-.05-.786h-.03c-.306.598-.826.897-1.557.897-.586 0-1.072-.232-1.458-.695-.386-.464-.58-1.064-.58-1.803 0-.792.21-1.434.63-1.923.406-.457.904-.685 1.498-.685.65 0 1.108.221 1.367.664h.02v-2.81h1.08v5.822c0 .477.012.916.038 1.319zM100.49 10.995c0-.451-.097-.838-.29-1.161-.227-.392-.549-.587-.97-.587-.431 0-.761.195-.989.587-.192.323-.29.716-.29 1.18 0 .452.098.84.29 1.163.234.39.559.585.98.585.412 0 .736-.199.969-.595.198-.33.3-.72.3-1.172zm1.117-.036c0 .753-.213 1.37-.639 1.854-.447.497-1.038.745-1.778.745-.711 0-1.278-.238-1.702-.715-.423-.477-.634-1.078-.634-1.803 0-.759.218-1.38.654-1.863.436-.484 1.023-.725 1.764-.725.71 0 1.284.239 1.716.715.412.463.62 1.061.62 1.792zM107.408 13.447h-1.078v-2.803c0-.864-.325-1.296-.979-1.296-.32 0-.58.12-.778.357-.199.238-.3.517-.3.839v2.903h-1.08V9.952c0-.43-.012-.896-.038-1.4h.947l.05.766h.03c.127-.238.315-.435.56-.591.293-.184.62-.275.979-.275.453 0 .828.147 1.128.443.374.363.559.902.559 1.62v2.932M114.668 9.368h-1.189v2.377c0 .604.211.907.63.907.193 0 .353-.017.48-.051l.029.826c-.213.08-.493.12-.84.12-.425 0-.757-.13-.996-.392-.242-.263-.36-.702-.36-1.32V9.369h-.71v-.815h.71v-.897l1.057-.322v1.219h1.19v.815M120.38 13.447h-1.08v-2.783c0-.877-.326-1.316-.977-1.316-.5 0-.842.254-1.03.764-.032.107-.05.238-.05.391v2.944h-1.077v-7.14h1.078v2.95h.02c.34-.537.826-.805 1.457-.805.447 0 .816.147 1.11.443.366.369.548.917.548 1.642v2.91M125.241 10.486a1.477 1.477 0 0 0-.209-.836c-.187-.302-.472-.453-.858-.453-.352 0-.64.148-.859.444-.179.234-.285.517-.32.845h2.246zm1.03.282c0 .195-.015.36-.04.493h-3.236c.014.484.169.853.468 1.108.274.229.628.343 1.06.343a3.55 3.55 0 0 0 1.31-.232l.168.755c-.46.202-1 .303-1.629.303-.751 0-1.342-.223-1.77-.67-.43-.447-.644-1.046-.644-1.798 0-.738.2-1.353.6-1.843.418-.524.983-.786 1.696-.786.698 0 1.228.262 1.586.786.288.417.43.93.43 1.541z"/>
        </g>
    </g>
</svg>
