<svg xmlns="http://www.w3.org/2000/svg" width="142" height="42" viewBox="0 0 142 42">
    <defs>
        <linearGradient id="a" x1="91.495%" x2="-38.237%" y1="4.946%" y2="71.879%">
            <stop offset="0%" stop-color="#00A0FF"/>
            <stop offset="1%" stop-color="#00A1FF"/>
            <stop offset="26%" stop-color="#00BEFF"/>
            <stop offset="51%" stop-color="#00D2FF"/>
            <stop offset="76%" stop-color="#00DFFF"/>
            <stop offset="100%" stop-color="#00E3FF"/>
        </linearGradient>
        <linearGradient id="b" x1="107.685%" x2="-130.64%" y1="50%" y2="50%">
            <stop offset="0%" stop-color="#FFE000"/>
            <stop offset="41%" stop-color="#FFBD00"/>
            <stop offset="78%" stop-color="#FFA500"/>
            <stop offset="100%" stop-color="#FF9C00"/>
        </linearGradient>
        <linearGradient id="c" x1="86.271%" x2="-50.18%" y1="17.871%" y2="194.64%">
            <stop offset="0%" stop-color="#FF3A44"/>
            <stop offset="100%" stop-color="#C31162"/>
        </linearGradient>
        <linearGradient id="d" x1="-18.825%" x2="42.086%" y1="-54.03%" y2="24.928%">
            <stop offset="0%" stop-color="#32A071"/>
            <stop offset="7%" stop-color="#2DA771"/>
            <stop offset="48%" stop-color="#15CF74"/>
            <stop offset="80%" stop-color="#06E775"/>
            <stop offset="100%" stop-color="#00F076"/>
        </linearGradient>
    </defs>
    <g fill="none" fill-rule="evenodd">
        <rect width="142" height="42" fill="#000" rx="5.25"/>
        <path fill="#A6A6A6" fill-rule="nonzero" d="M136.74.84a4.414 4.414 0 0 1 4.419 4.41v31.5a4.414 4.414 0 0 1-4.418 4.41H5.259a4.414 4.414 0 0 1-4.418-4.41V5.25A4.414 4.414 0 0 1 5.26.84h131.482zm0-.84H5.26A5.255 5.255 0 0 0 0 5.25v31.5C0 39.65 2.355 42 5.26 42h131.48c2.905 0 5.26-2.35 5.26-5.25V5.25c0-2.9-2.355-5.25-5.26-5.25z"/>
        <path fill="#FFF" stroke="#FFF" stroke-width=".5" d="M49.879 10.752a2.853 2.853 0 0 1-.79 2.1 3.053 3.053 0 0 1-2.313.924 3.158 3.158 0 0 1-2.325-.945 3.345 3.345 0 0 1 0-4.683 3.328 3.328 0 0 1 3.619-.683c.379.156.717.397.988.704l-.557.556a2.105 2.105 0 0 0-1.725-.755 2.518 2.518 0 1 0-1.268 4.689 2.528 2.528 0 0 0 3.035-.353c.321-.352.508-.805.526-1.281h-2.293v-.756h3.06c.025.16.039.321.043.483zM54.696 8.127h-2.84v1.995h2.588v.756h-2.588v1.995h2.84v.777h-3.66v-6.3h3.66zM58.146 13.65h-.81V8.127H55.57V7.35h4.387v.777h-1.81zM63.048 13.65v-6.3h.81v6.3zM67.455 13.65h-.81V8.127h-1.767V7.35h4.334v.777h-1.757z"/>
        <path fill="#FFF" fill-rule="nonzero" stroke="#FFF" stroke-width=".5" d="M77.427 12.831a3.274 3.274 0 0 1-4.628 0 3.398 3.398 0 0 1 0-4.662 3.085 3.085 0 0 1 2.314-.956 3.158 3.158 0 0 1 2.314.956 3.22 3.22 0 0 1 .925 2.331 3.147 3.147 0 0 1-.925 2.331zm-4.029-.525a2.41 2.41 0 0 0 3.43 0 2.664 2.664 0 0 0 0-3.612 2.41 2.41 0 0 0-3.43 0 2.664 2.664 0 0 0 0 3.612z"/>
        <path fill="#FFF" stroke="#FFF" stroke-width=".5" d="M79.499 13.65v-6.3h.978l3.072 4.904V7.35h.81v6.3h-.842l-3.208-5.135v5.135z"/>
        <path fill="#FFF" fill-rule="nonzero" d="M71.673 22.837a4.477 4.477 0 0 0-4.47 4.484 4.477 4.477 0 0 0 4.491 4.462 4.477 4.477 0 0 0 4.47-4.483 4.396 4.396 0 0 0-1.297-3.182 4.411 4.411 0 0 0-3.194-1.28zm0 7.172a2.715 2.715 0 0 1-2.638-1.535 2.705 2.705 0 0 1 .462-3.013 2.717 2.717 0 0 1 2.977-.677 2.71 2.71 0 0 1 1.724 2.516 2.58 2.58 0 0 1-.69 1.886 2.59 2.59 0 0 1-1.835.823zm-9.803-7.172a4.477 4.477 0 0 0-4.47 4.484 4.477 4.477 0 0 0 4.491 4.462 4.477 4.477 0 0 0 4.47-4.483 4.396 4.396 0 0 0-1.297-3.182 4.411 4.411 0 0 0-3.194-1.28zm0 7.172a2.715 2.715 0 0 1-2.638-1.535 2.705 2.705 0 0 1 .462-3.013 2.717 2.717 0 0 1 2.977-.677 2.71 2.71 0 0 1 1.723 2.516 2.58 2.58 0 0 1-.69 1.886 2.59 2.59 0 0 1-1.834.823zm-11.655-5.796v1.89h4.544a3.955 3.955 0 0 1-1.051 2.383 4.654 4.654 0 0 1-3.514 1.386 5.044 5.044 0 0 1-5.049-5.04c0-2.783 2.26-5.04 5.05-5.04a4.885 4.885 0 0 1 3.45 1.355l1.335-1.333a6.633 6.633 0 0 0-4.765-1.912 6.956 6.956 0 0 0-6.246 3.388 6.93 6.93 0 0 0 0 7.096 6.956 6.956 0 0 0 6.246 3.387 6.39 6.39 0 0 0 4.85-1.942 6.294 6.294 0 0 0 1.64-4.442 6.572 6.572 0 0 0-.094-1.176h-6.396zm47.66 1.47a4.207 4.207 0 0 0-3.829-2.846 4.21 4.21 0 0 0-3.072 1.322 4.196 4.196 0 0 0-1.135 3.141 4.442 4.442 0 0 0 3.15 4.29A4.453 4.453 0 0 0 98 29.787l-1.525-1.05a2.536 2.536 0 0 1-2.199 1.229 2.262 2.262 0 0 1-2.166-1.354l5.985-2.468-.221-.462zm-6.1 1.491a2.454 2.454 0 0 1 .622-1.8 2.463 2.463 0 0 1 1.723-.814 1.726 1.726 0 0 1 1.651.955l-3.997 1.659zm-4.86 4.326h1.966V18.375h-1.966V31.5zm-3.22-7.665h-.073a3.095 3.095 0 0 0-2.356-1.05 4.476 4.476 0 0 0-4.264 4.468 4.476 4.476 0 0 0 4.264 4.468 3.032 3.032 0 0 0 2.356-1.05h.074v.64c0 1.712-.915 2.625-2.388 2.625a2.482 2.482 0 0 1-2.261-1.586l-1.704.704a4.207 4.207 0 0 0 3.965 2.646c2.304 0 4.208-1.355 4.208-4.652V23.1h-1.82v.735zm-2.26 6.174a2.711 2.711 0 0 1-2.546-2.704 2.711 2.711 0 0 1 2.545-2.703 2.507 2.507 0 0 1 2.398 2.698 2.496 2.496 0 0 1-.618 1.867 2.505 2.505 0 0 1-1.78.842zm25.654-11.634h-4.712V31.5h1.967v-4.977h2.745a4.094 4.094 0 0 0 3.787-1.948 4.078 4.078 0 0 0 0-4.252 4.094 4.094 0 0 0-3.787-1.948zm0 6.3h-2.745v-4.473h2.787c.804 0 1.547.428 1.95 1.123a2.244 2.244 0 0 1 0 2.248 2.252 2.252 0 0 1-1.95 1.123l-.042-.021zm12.138-1.88a3.672 3.672 0 0 0-3.502 2.006l1.735.725a1.873 1.873 0 0 1 1.799-.956 1.896 1.896 0 0 1 2.104 1.69v.127a4.403 4.403 0 0 0-2.051-.505c-1.873 0-3.787 1.05-3.787 2.961.037.821.406 1.592 1.023 2.136a3.043 3.043 0 0 0 2.248.752 2.789 2.789 0 0 0 2.504-1.281h.063v1.05h1.893v-5.05c0-2.3-1.746-3.633-3.987-3.633l-.042-.021zm-.242 7.193c-.641 0-1.535-.325-1.535-1.113 0-1.05 1.115-1.407 2.103-1.407a3.497 3.497 0 0 1 1.789.441 2.376 2.376 0 0 1-2.314 2.1l-.043-.021zm11.171-6.888l-2.25 5.691h-.064l-2.335-5.691h-2.104l3.503 7.959-1.999 4.42h2.052l5.385-12.379h-2.188zm-17.671 8.4h1.956V18.375h-1.956V31.5z"/>
        <path fill="url(#a)" d="M10.981 7.917c-.346.41-.523.935-.494 1.47v23.226a2.035 2.035 0 0 0 .494 1.47l.074.084 13.032-13.01v-.314l-13.032-13-.074.074z"/>
        <path fill="url(#b)" d="M28.4 25.494l-4.313-4.337v-.314l4.313-4.337.095.063 5.164 2.919c1.473.83 1.473 2.195 0 3.035l-5.143 2.919-.116.052z"/>
        <path fill="url(#c)" d="M28.526 25.431L24.087 21 10.981 34.083a1.706 1.706 0 0 0 2.178.074l15.367-8.726"/>
        <path fill="url(#d)" d="M28.526 16.569L13.16 7.854a1.696 1.696 0 0 0-2.178.063L24.087 21l4.44-4.431z"/>
        <path fill="#000" d="M28.4 25.337l-15.241 8.662a1.749 1.749 0 0 1-2.104 0l-.074.073.074.084a1.749 1.749 0 0 0 2.104 0l15.367-8.725-.126-.095z" opacity=".2"/>
        <path fill="#000" d="M10.981 33.936a2.098 2.098 0 0 1-.462-1.48v.157a2.035 2.035 0 0 0 .494 1.47l.074-.073-.106-.074zM33.66 22.365l-5.26 2.972.095.094 5.164-2.919A1.838 1.838 0 0 0 34.774 21a1.954 1.954 0 0 1-1.115 1.365z" opacity=".12"/>
        <path fill="#FFF" d="M13.159 8.001l20.5 11.634c.568.252.982.759 1.115 1.365a1.838 1.838 0 0 0-1.115-1.512L13.16 7.854c-1.462-.84-2.672-.147-2.672 1.533v.157c.032-1.68 1.21-2.373 2.672-1.543z" opacity=".25"/>
    </g>
</svg>
